<svg width="19" height="21" viewBox="0 0 19 21" fill="none" xmlns="http://www.w3.org/2000/svg">
<path d="M9.53444 0C10.0146 0.413955 10.4202 0.903473 10.8572 1.35891C11.8832 2.43034 12.8953 3.51739 13.9197 4.58841C14.1366 4.81469 14.2377 5.04918 14.2336 5.36868C14.2177 6.52308 14.2311 7.67747 14.223 8.83145C14.223 9.00968 14.2833 9.07785 14.4484 9.12385C16.8697 9.81541 18.3869 11.4063 18.8789 13.8827C19.2605 15.8038 18.7354 17.5376 17.4339 19.0062C16.3948 20.1803 15.079 20.86 13.5337 20.9774C11.2037 21.1544 9.34815 20.2423 8.00461 18.3081C7.89536 18.1504 7.78897 18.083 7.59698 18.0838C5.86822 18.0916 4.13946 18.0892 2.41071 18.0879C1.18252 18.0871 0.25231 17.3175 0.0240375 16.1089C0.00348483 15.974 -0.00443085 15.8375 0.000394982 15.7011C0.000394982 11.2615 0.000394982 6.82177 0.000394982 2.38188C0.000394982 1.24885 0.689289 0.342909 1.77195 0.047227C1.82372 0.0332642 1.87549 0.0160161 1.92685 0H9.53444ZM8.15298 11.3973C8.05637 11.3476 7.98096 11.3653 7.9084 11.3653C6.51241 11.3653 5.11601 11.3653 3.7192 11.3653C3.60395 11.3721 3.48843 11.3582 3.37801 11.3242C3.18439 11.2536 3.07637 11.1066 3.07066 10.9074C3.06653 10.8177 3.08974 10.7288 3.13718 10.6528C3.18461 10.5767 3.254 10.5171 3.33603 10.4819C3.43834 10.4318 3.54718 10.4384 3.6552 10.4384C5.36357 10.4384 7.07195 10.4384 8.78032 10.4413C8.93535 10.4464 9.08679 10.3936 9.20548 10.293C10.335 9.37641 11.6309 8.93042 13.078 8.9296C13.2561 8.9296 13.3132 8.87909 13.3115 8.69839C13.3045 7.73524 13.3045 6.77222 13.3115 5.80933C13.3115 5.62125 13.2422 5.581 13.0723 5.58264C12.3471 5.59003 11.6215 5.59291 10.8963 5.58264C10.2201 5.57443 9.65958 5.31653 9.25195 4.75638C8.96661 4.36419 8.88264 3.91245 8.87897 3.44223C8.87326 2.68414 8.87245 1.92604 8.87897 1.16794C8.88101 0.977804 8.8325 0.905526 8.62991 0.906348C6.55548 0.912919 4.48106 0.923185 2.40663 0.906348C1.51922 0.898134 0.908186 1.632 0.909816 2.3979C0.920686 6.83012 0.920686 11.2626 0.909816 15.6954C0.909816 16.4284 1.47112 17.166 2.38421 17.1648C3.98402 17.1631 5.58397 17.1641 7.18405 17.1676C7.36055 17.1676 7.3899 17.1266 7.33079 16.9594C6.9662 15.9392 6.89069 14.8369 7.11271 13.7759C7.14573 13.6158 7.09722 13.578 6.94151 13.5796C6.2893 13.5878 5.63995 13.5833 4.98937 13.5833C4.50796 13.5833 4.02655 13.5858 3.54514 13.5813C3.26999 13.5788 3.08615 13.4088 3.06536 13.1517C3.04742 12.9328 3.21088 12.7303 3.45832 12.6786C3.54476 12.6628 3.6326 12.6561 3.72042 12.6585C4.89331 12.6585 6.06606 12.6578 7.23867 12.6564C7.32998 12.6564 7.43637 12.6827 7.48569 12.5657C7.66383 12.1534 7.9084 11.7862 8.15298 11.3973ZM12.9793 20.0768C15.719 20.1105 18.0474 17.8592 18.0616 15.0075C18.0755 12.2051 15.8841 9.88071 13.003 9.86798C10.1911 9.85607 7.94509 12.1176 7.92063 14.943C7.89618 17.8066 10.2409 20.1039 12.9793 20.0768ZM12.6895 4.65699L9.84464 1.64268C9.83312 1.69277 9.82454 1.74351 9.81896 1.79463C9.81896 2.40776 9.80918 3.02171 9.82386 3.63484C9.83772 4.21511 10.2315 4.63153 10.8062 4.65207C11.414 4.67383 12.023 4.65699 12.6895 4.65699Z" fill="white"/>
<path d="M5.72941 9.15623C5.01769 9.15623 4.30556 9.15623 3.59383 9.15623C3.28037 9.15623 3.09449 9.00182 3.06922 8.7316C3.04639 8.48519 3.23879 8.27986 3.53758 8.23879C3.5982 8.23186 3.65922 8.22925 3.7202 8.23099C5.05559 8.23099 6.39113 8.23099 7.72679 8.23099C7.81469 8.23013 7.90243 8.23881 7.98849 8.25686C8.25427 8.31517 8.38878 8.49669 8.36596 8.75459C8.34517 8.98703 8.16459 9.15089 7.90533 9.15212C7.18016 9.15582 6.45458 9.15212 5.72941 9.15212V9.15623Z" fill="white"/>
<path d="M14.1727 15.4646C14.0031 15.4646 13.8331 15.4724 13.6644 15.4622C13.5083 15.4531 13.4451 15.5032 13.4504 15.6704C13.461 16.0112 13.4557 16.3533 13.4528 16.6946C13.45 17.028 13.2735 17.2285 12.9934 17.2285C12.7134 17.2285 12.5389 17.0252 12.5348 16.6913C12.5304 16.3496 12.5279 16.0079 12.5348 15.6646C12.5385 15.5151 12.4896 15.4593 12.3367 15.4618C11.9699 15.4696 11.603 15.472 11.2386 15.4618C10.8742 15.4515 10.6577 15.1242 10.802 14.8108C10.8925 14.6141 11.0633 14.5414 11.2667 14.5398C11.6258 14.5365 11.9854 14.534 12.3445 14.5398C12.4847 14.5423 12.5373 14.4926 12.5344 14.3501C12.5283 13.9879 12.5259 13.6256 12.5344 13.2638C12.5446 12.8807 12.8389 12.6573 13.1557 12.7834C13.3648 12.8655 13.4483 13.0376 13.4504 13.2532C13.4532 13.6154 13.4569 13.9776 13.4504 14.3394C13.4471 14.4913 13.4997 14.5447 13.6501 14.5402C13.9889 14.532 14.328 14.5349 14.6672 14.5402C15.0063 14.5455 15.1999 14.7139 15.2024 14.9969C15.2048 15.2913 15.0083 15.4622 14.6598 15.4659C14.498 15.4659 14.3353 15.4642 14.1727 15.4646Z" fill="white"/>
</svg>
