<svg width="14" height="15" viewBox="0 0 14 15" fill="none" xmlns="http://www.w3.org/2000/svg">
<g clip-path="url(#clip0_275_263)">
<path d="M0 2.79907V12.026H4.17375C4.55371 12.0267 4.93215 11.9746 5.29958 11.871C5.65051 11.776 5.98251 11.6138 6.27958 11.3922C6.56537 11.1757 6.79877 10.8892 6.96033 10.5566C7.12717 10.2178 7.21117 9.8147 7.21117 9.3472C7.21117 8.7697 7.08283 8.27782 6.8215 7.86595C6.56133 7.4572 6.16875 7.17033 5.6385 7.0072C6.02817 6.8097 6.31867 6.55533 6.517 6.24595C6.71417 5.93595 6.81217 5.54783 6.81217 5.08345C6.81217 4.65345 6.74683 4.29095 6.61558 4.00095C6.48937 3.71734 6.29561 3.47439 6.05383 3.29657C5.78931 3.11095 5.49377 2.98191 5.1835 2.91658C4.81397 2.8347 4.43734 2.79531 4.06 2.79907H0ZM9.13908 3.41782V4.32845H12.6303V3.41845L9.13908 3.41782ZM1.89642 4.37157H3.66975C3.83775 4.37157 4.00167 4.38407 4.15742 4.4172C4.31667 4.44595 4.45375 4.50095 4.57508 4.5797C4.69758 4.6547 4.79442 4.7622 4.86733 4.8997C4.93792 5.0372 4.97292 5.2147 4.97292 5.4297C4.97292 5.81658 4.86733 6.09845 4.64917 6.26907C4.42867 6.4422 4.151 6.52783 3.815 6.52783H1.89583L1.89642 4.37157ZM10.9643 5.15533C10.486 5.15533 10.0549 5.24658 9.6635 5.42782C9.27267 5.60908 8.93667 5.85783 8.65375 6.17283C8.36747 6.49445 8.14519 6.87508 8.00042 7.29158C7.84487 7.7385 7.76678 8.2121 7.77 8.68908C7.77 9.20595 7.84525 9.68283 7.994 10.1141C8.1445 10.546 8.35567 10.9147 8.6275 11.2266C8.91069 11.5413 9.25419 11.7865 9.63433 11.9453C10.031 12.1135 10.4732 12.1985 10.9643 12.1985C11.669 12.1985 12.2733 12.0253 12.7697 11.6778C13.2714 11.3322 13.6389 10.7585 13.8816 9.9547H12.3737C12.3153 10.161 12.1637 10.3603 11.9163 10.546C11.6655 10.7335 11.3668 10.8272 11.0215 10.8272C10.5408 10.8272 10.1698 10.6916 9.91375 10.4228C9.6565 10.1541 9.48967 9.6547 9.48967 9.12658H13.9889C14.023 8.62712 13.9828 8.12504 13.8699 7.63908C13.7657 7.18223 13.5795 6.75151 13.3216 6.37095C13.0665 5.99874 12.7337 5.69566 12.3497 5.48595C11.9531 5.2647 11.4922 5.15533 10.9643 5.15533ZM10.9124 6.54095C11.333 6.54095 11.6783 6.6722 11.8813 6.91283C12.0855 7.15658 12.2354 7.50282 12.2762 7.97032H9.48967C9.50079 7.82086 9.527 7.67312 9.56783 7.5297C9.61158 7.36345 9.68683 7.2072 9.79767 7.05907C9.9085 6.91407 10.0543 6.79033 10.2317 6.69033C10.4125 6.59033 10.6388 6.54095 10.9124 6.54095ZM1.89642 7.91407H3.95733C4.36567 7.91407 4.69758 8.01407 4.94608 8.21658C5.19458 8.42158 5.31942 8.75908 5.31942 9.2347C5.31942 9.4772 5.28325 9.67845 5.20625 9.8322C5.13042 9.98845 5.02542 10.1116 4.89825 10.201C4.77167 10.2947 4.62117 10.3572 4.45142 10.3972C4.28458 10.4372 4.10725 10.4547 3.92 10.4547H1.89583L1.89642 7.91407Z" fill="#828282"/>
</g>
<defs>
<clipPath id="clip0_275_263">
<rect width="14" height="15" fill="white"/>
</clipPath>
</defs>
</svg>
