<svg width="103" height="66" viewBox="0 0 103 66" fill="none" xmlns="http://www.w3.org/2000/svg">
<path d="M54.6809 24.1974C54.9786 24.0838 55.2492 23.9091 55.4751 23.6846C55.701 23.4601 55.8773 23.1908 55.9925 22.894C56.1359 22.5199 56.1857 22.1165 56.1376 21.7188C56.0896 21.3211 55.9452 20.9411 55.7169 20.6117C55.4886 20.2824 55.1833 20.0136 54.8275 19.8286C54.4717 19.6437 54.0761 19.5482 53.675 19.5504C51.6799 19.4872 49.6825 19.5367 47.6851 19.5261C47.4313 19.5261 47.3604 19.6072 47.3629 19.8545C47.3699 22.8438 47.3699 25.8331 47.3629 28.8223C47.3629 29.0958 47.4408 29.1809 47.7179 29.1801C49.6974 29.1695 51.6769 29.1801 53.6564 29.1695C53.9017 29.1607 54.1454 29.1255 54.3832 29.0644C54.9251 28.941 55.4109 28.6424 55.7654 28.2149C56.12 27.7875 56.3232 27.2551 56.3438 26.7005C56.4022 26.1551 56.268 25.6065 55.9644 25.1495C55.6607 24.6924 55.2068 24.3557 54.6809 24.1974ZM51.1519 21.9292H52.5609C52.7083 21.9285 52.8503 21.9842 52.9577 22.0849C53.065 22.1857 53.1296 22.3237 53.1381 22.4706C53.1466 22.6175 53.0984 22.762 53.0033 22.8744C52.9083 22.9869 52.7737 23.0586 52.6273 23.0748C51.931 23.1126 51.2325 23.0937 50.536 23.0991C50.4096 23.0991 50.3412 23.0451 50.3441 22.9151C50.3452 22.8979 50.3452 22.8807 50.3441 22.8635C50.2229 21.9881 50.2778 21.927 51.1511 21.927L51.1519 21.9292ZM53.3411 26.1965C53.281 26.6427 52.9999 26.8024 52.5626 26.764C52.2855 26.7408 52.0043 26.764 51.725 26.764H51.1982C50.3417 26.764 50.1447 26.5062 50.3385 25.6614C50.3828 25.4636 50.4987 25.4668 50.6407 25.4668C51.3034 25.4668 51.9667 25.4511 52.6286 25.4784C53.1038 25.4925 53.3925 25.8038 53.3408 26.1965H53.3411Z" fill="#ECF0E6"/>
<path d="M46.8223 35.5441C46.8014 34.2869 47.2626 33.0693 48.1114 32.1406C48.9602 31.2119 50.1324 30.6424 51.3879 30.5488C53.2957 30.3866 54.9297 30.8328 56.0949 32.4584C56.6881 33.2864 56.687 33.2875 55.7737 33.7072C55.5629 33.8018 55.3651 33.9039 55.1586 33.9985C54.8634 34.1841 54.5415 34.3236 54.2042 34.412C53.789 34.4593 53.7964 33.9418 53.5509 33.7196C53.2363 33.412 52.8352 33.2075 52.4011 33.1334C51.9671 33.0594 51.5208 33.1192 51.1217 33.3051C50.7032 33.5297 50.3584 33.8701 50.1288 34.2855C49.8992 34.701 49.7944 35.1737 49.8271 35.6471C49.9323 37.0083 50.85 37.9312 52.0961 37.9153C52.4672 37.921 52.8323 37.8216 53.1492 37.6287C53.4662 37.4359 53.7219 37.1573 53.887 36.8254C54.0302 36.5613 54.1419 36.5413 54.3939 36.6654C54.9892 36.96 55.5875 37.2472 56.2037 37.4902C56.5766 37.6375 56.5639 37.8058 56.388 38.1026C55.3283 39.9111 53.7195 40.6538 51.6726 40.5054C49.3275 40.3349 47.6073 38.9947 47.0079 36.9135C46.8709 36.4704 46.8082 36.0077 46.8223 35.5441Z" fill="#ECF0E6"/>
<path d="M67.9755 24.474C68.3968 23.8205 68.8309 23.1725 69.2398 22.512C69.2969 22.3964 69.3881 22.3011 69.5011 22.2388C69.6141 22.1765 69.7435 22.1503 69.8719 22.1636C70.7622 22.1879 71.6533 22.172 72.6489 22.172C72.3918 22.5203 72.1821 22.8095 71.9672 23.0936C71.472 23.75 70.9895 24.4159 70.4713 25.0537C70.4274 25.0933 70.392 25.1413 70.3673 25.195C70.3425 25.2486 70.329 25.3067 70.3274 25.3658C70.3258 25.4248 70.3363 25.4835 70.3581 25.5384C70.38 25.5933 70.4128 25.6432 70.4545 25.685C71.1646 26.7033 71.8514 27.7389 72.5447 28.7659C72.6194 28.8775 72.6849 28.9953 72.7934 29.174C71.7505 29.174 70.7771 29.1678 69.8037 29.174C69.5794 29.174 69.5109 29.0456 69.4265 28.8856C69.0947 28.2543 68.7521 27.6295 68.4057 26.992C68.2169 27.1341 68.0688 27.3233 67.9764 27.5407C67.884 27.758 67.8504 27.9958 67.8791 28.2302C67.9119 29.1761 67.8886 29.1761 66.932 29.1761C66.4939 29.1761 66.0544 29.1613 65.6174 29.1761C65.3414 29.1888 65.2583 29.0972 65.2583 28.8205C65.268 25.8284 65.268 22.8363 65.2583 19.844C65.2583 19.5851 65.3436 19.5178 65.589 19.5284C66.2385 19.5422 66.8879 19.5505 67.5346 19.5284C67.8507 19.5168 67.9032 19.6335 67.9013 19.9157C67.8875 21.4201 67.8951 22.9257 67.8951 24.4289L67.9755 24.474Z" fill="#ECF0E6"/>
<path d="M77.9256 28.4152C77.5398 28.7787 77.0747 29.0478 76.5671 29.2013C76.0594 29.3549 75.523 29.3887 75.0001 29.3001C74.5136 29.2672 74.058 29.0499 73.7266 28.6926C73.3953 28.3353 73.2132 27.865 73.2176 27.378C73.2019 25.7684 73.2176 24.1588 73.207 22.5489C73.207 22.2516 73.2882 22.1554 73.5894 22.167C74.1677 22.1892 74.7481 22.1975 75.3245 22.167C75.7248 22.1448 75.8693 22.2416 75.8511 22.6762C75.8165 23.7766 75.8511 24.8855 75.8354 25.983C75.8354 26.447 75.9461 26.8194 76.4286 26.9718C76.6749 27.0378 76.9346 27.0351 77.1795 26.9638C77.4243 26.8926 77.6449 26.7556 77.8171 26.5678C77.9051 26.4162 77.9368 26.2385 77.9067 26.0659C77.9067 24.9087 77.9205 23.7515 77.9015 22.6016C77.8953 22.2543 77.9995 22.1513 78.3451 22.167C78.9583 22.1954 79.5733 22.1881 80.1852 22.167C80.4623 22.1586 80.5446 22.251 80.5435 22.5237C80.535 24.6238 80.535 26.7237 80.5435 28.8236C80.5435 29.0938 80.4623 29.1909 80.1852 29.1792C79.6775 29.1592 79.1674 29.1592 78.6598 29.1792C78.2079 29.196 77.7589 29.2484 77.9256 28.4152Z" fill="#ECF0E6"/>
<path d="M63.9453 24.5346C63.8936 23.3068 63.2785 22.5598 62.0892 22.2201C61.34 22.0021 60.554 21.9396 59.7797 22.0364C59.0054 22.1332 58.2591 22.3873 57.5868 22.7831C57.2496 22.9722 57.1971 23.1482 57.4277 23.4649C57.6077 23.722 57.7592 23.9978 57.8796 24.2876C58.0165 24.6032 58.1389 24.6929 58.4685 24.4686C58.9557 24.1504 59.5315 23.995 60.1129 24.0246C61.1296 24.0435 61.466 24.4454 61.3088 25.4975C60.603 24.9421 59.7877 24.8316 58.9352 24.881C57.7586 24.9505 57.0001 25.5913 56.8443 26.635C56.7441 27.1645 56.8379 27.7123 57.1087 28.1784C57.3795 28.6445 57.8091 28.9978 58.3191 29.1737C59.3883 29.5461 60.4071 29.3253 61.394 28.534C61.1434 29.2443 61.5626 29.1748 61.9406 29.1654C62.5189 29.1591 63.0994 29.1548 63.6747 29.1654C63.899 29.1705 63.9813 29.1054 63.9791 28.8729C63.9621 27.4341 64.0021 25.9864 63.9453 24.5346ZM61.0292 27.4803C60.8446 27.5786 60.639 27.6312 60.4298 27.6338C60.183 27.6489 59.936 27.6079 59.7073 27.5138C59.6265 27.4803 59.5574 27.4237 59.5087 27.3511C59.46 27.2785 59.4338 27.1931 59.4334 27.1058C59.4242 27.0096 59.4476 26.913 59.4997 26.8316C59.5518 26.7502 59.6298 26.6886 59.7211 26.6566C59.9316 26.5701 60.1581 26.5291 60.3856 26.5364C60.6132 26.5436 60.8366 26.599 61.0411 26.6988C61.1253 26.7247 61.1989 26.7769 61.2511 26.8477C61.3033 26.9186 61.3313 27.0043 61.3309 27.0922C61.3255 27.1807 61.2933 27.2654 61.2386 27.3351C61.1838 27.4048 61.1091 27.4562 61.0243 27.4825L61.0292 27.4803Z" fill="#ECF0E6"/>
<path d="M77.2015 35.7381C77.1571 34.5071 76.5588 33.7612 75.3768 33.3972C73.9866 32.9738 72.4864 33.103 71.1894 33.7579C70.4087 34.1263 70.4171 34.146 70.8205 34.8806C70.9458 35.11 71.0987 35.3276 71.2029 35.5665C71.3071 35.8054 71.4043 35.821 71.6243 35.68C72.1543 35.3306 72.7805 35.1556 73.4151 35.1792C74.378 35.2138 74.7319 35.6727 74.5517 36.6521C73.8915 36.1796 73.0828 35.9607 72.274 36.0356C71.0162 36.0883 70.2038 36.7794 70.0891 37.8758C69.9995 38.4539 70.1381 39.0442 70.4757 39.5222C70.8133 40.0003 71.3236 40.3288 71.8989 40.4386C72.8639 40.6575 73.7309 40.4207 74.6093 39.7359C74.4851 40.2789 74.7146 40.3483 75.0897 40.3305C75.7018 40.301 76.3169 40.3148 76.9298 40.3305C77.1406 40.3305 77.2396 40.2927 77.2364 40.0475C77.2202 38.6114 77.254 37.171 77.2015 35.7381ZM74.375 38.5925C74.1038 38.7445 73.7953 38.8175 73.4847 38.803C73.3235 38.7786 73.1641 38.7435 73.0076 38.6979C72.9139 38.6725 72.8316 38.6161 72.7742 38.538C72.7168 38.4598 72.6877 38.3645 72.6915 38.2676C72.6825 38.1709 72.7057 38.0739 72.7575 37.9917C72.8093 37.9095 72.8869 37.8467 72.9781 37.8131C73.2041 37.7147 73.4507 37.6729 73.6965 37.6912C73.9423 37.7095 74.1799 37.7874 74.3888 37.9182C74.4533 37.9487 74.5076 37.9971 74.5452 38.0576C74.5828 38.1182 74.602 38.1883 74.6007 38.2595C74.5993 38.3308 74.5773 38.4001 74.5374 38.4592C74.4975 38.5182 74.4414 38.5645 74.3758 38.5925H74.375Z" fill="#ECF0E6"/>
<path d="M66.2439 33.1644C64.6227 33.1455 63.3511 33.8303 62.6737 35.2813C62.3465 35.918 62.2215 36.6393 62.3156 37.3488C62.4097 38.0583 62.7184 38.7222 63.2003 39.2519C64.3929 40.6572 67.6342 40.9353 69.0798 39.7778C69.2484 39.6427 69.2422 39.5527 69.1304 39.397C68.9119 39.1023 68.7083 38.7968 68.5205 38.4817C68.3267 38.1471 68.1803 37.9936 67.7387 38.2314C66.9591 38.6522 65.556 38.6417 65.1198 37.6098H69.4682C69.6514 37.6098 69.8421 37.6666 69.857 37.3469C69.9574 34.9297 68.494 33.1907 66.2439 33.1644ZM67.0181 35.9694C66.722 35.9621 66.4249 35.9694 66.1289 35.9694C65.9013 35.9694 65.6748 35.9756 65.4483 35.9694C65.3354 35.9694 65.1733 36.0326 65.1322 35.881C65.1111 35.8054 65.188 35.6864 65.2459 35.6054C65.6788 34.9919 66.8365 35.0235 67.1831 35.6537C67.29 35.844 67.3068 35.9756 67.0183 35.9702L67.0181 35.9694Z" fill="#ECF0E6"/>
<path d="M98.9186 33.1632C97.1994 33.1243 95.6919 34.1007 95.1756 35.5831C94.6425 37.1138 95.1009 38.8445 96.3733 39.7147C97.9672 40.8014 99.6769 40.6606 101.375 39.9641C101.98 39.7158 101.963 39.6728 101.586 39.1088C101.391 38.8185 101.181 38.5386 101.003 38.2388C100.889 38.0472 100.793 38.017 100.6 38.141C100.222 38.3659 99.7891 38.481 99.3494 38.4734C98.6951 38.4872 98.1117 38.3367 97.7493 37.6043H102.089C102.251 37.6043 102.454 37.7043 102.49 37.3675C102.736 35.0888 101.155 33.2138 98.9186 33.1632ZM98.0272 35.9712C97.7112 35.9774 97.7112 35.8595 97.8597 35.6439C97.9876 35.4661 98.1627 35.3275 98.3653 35.2438C98.5678 35.1602 98.7897 35.1347 99.006 35.1704C99.4685 35.1988 99.7678 35.4606 99.9802 35.9668C99.2766 35.9671 98.6521 35.9576 98.0272 35.9703V35.9712Z" fill="#ECF0E6"/>
<path d="M90.9921 37.2688C91.3745 36.1484 91.72 35.1501 92.0583 34.1485C92.3311 33.3377 92.3289 33.3364 93.1875 33.3364C93.7144 33.3364 94.241 33.3459 94.7676 33.3364C95.0247 33.3302 95.1172 33.3848 95.0112 33.6521C94.1746 35.7759 93.3441 37.9019 92.5197 40.03C92.5002 40.1215 92.4471 40.2025 92.3709 40.257C92.2947 40.3115 92.2009 40.3356 92.1078 40.3246C91.3704 40.3108 90.633 40.3162 89.8956 40.3246C89.7062 40.3246 89.5901 40.2976 89.5078 40.0814C88.6535 37.8561 87.7822 35.6362 86.8867 33.3386H89.4845C89.77 33.3386 89.7552 33.5785 89.8093 33.7426C90.1957 34.8701 90.5697 36.0054 90.9921 37.2688Z" fill="#ECF0E6"/>
<path d="M79.0359 37.1995V36.623C79.0359 36.3073 79.1265 35.9287 78.9831 35.7014C78.8397 35.4742 78.4311 35.6236 78.1405 35.6204C77.8772 35.6204 77.8739 35.4752 77.8761 35.2836C77.8761 34.7577 77.8961 34.2315 77.8761 33.7108C77.8623 33.4024 77.9813 33.334 78.2657 33.3311C79.041 33.3216 79.0399 33.3089 79.0399 32.5252C79.0399 31.4131 79.04 31.409 80.1524 31.4142C80.6395 31.4142 81.2754 31.2585 81.5715 31.5025C81.8876 31.7603 81.6768 32.4214 81.6589 32.9008C81.6451 33.3048 81.818 33.347 82.1519 33.3438C83.1096 33.3343 83.1096 33.3438 83.1096 34.2896V34.4475C83.1001 34.8115 83.2214 35.2712 83.0444 35.5142C82.8496 35.7814 82.3606 35.5952 82.0026 35.6047C81.759 35.6109 81.6592 35.6742 81.6665 35.932C81.6833 36.4582 81.6537 36.9841 81.6781 37.5038C81.7052 38.0443 81.9698 38.2507 82.5029 38.1351C82.7337 38.0867 82.7979 38.1351 82.839 38.3551C82.9041 38.7842 83.0071 39.2067 83.1467 39.6177C83.3047 40.0385 83.1088 40.1901 82.7749 40.2995C81.9933 40.5772 81.142 40.5909 80.3519 40.3384C79.5092 40.0585 79.0762 39.4009 79.0413 38.3964C79.0243 38.0043 79.0359 37.6013 79.0359 37.1995Z" fill="#ECF0E6"/>
<path d="M59.8632 34.0601C60.3863 33.6121 61.0187 33.3101 61.6963 33.1848C61.9439 33.1426 62.0841 33.1742 62.0703 33.4931C62.0432 34.1044 62.0513 34.7176 62.0703 35.3308C62.0776 35.5854 62.0208 35.677 61.7542 35.6181C61.5637 35.5865 61.3695 35.5833 61.1781 35.6087C60.1141 35.7003 59.9319 35.8981 59.9319 36.9448C59.9319 37.9253 59.9214 38.9049 59.9382 39.8843C59.9382 40.2051 59.8897 40.3524 59.5168 40.3316C58.8847 40.2959 58.2526 40.3105 57.6207 40.3316C57.369 40.3378 57.2919 40.26 57.293 40.0073C57.3014 37.9031 57.3046 35.8073 57.293 33.7085C57.293 33.3929 57.4142 33.3288 57.6943 33.3383C58.2019 33.3561 58.712 33.3583 59.2197 33.3383C59.6757 33.3153 60.1043 33.2975 59.8632 34.0601Z" fill="#ECF0E6"/>
<path d="M86.5402 36.8592C86.5402 37.8713 86.5308 38.8845 86.5465 39.8966C86.5465 40.2123 86.5053 40.3701 86.1251 40.349C85.493 40.3134 84.8608 40.3301 84.2363 40.3439C83.9908 40.349 83.9013 40.2788 83.9024 40.0196C83.9108 37.9076 83.9108 35.7958 83.9024 33.6841C83.9024 33.4189 84.0076 33.3633 84.2425 33.3684C84.8746 33.38 85.5068 33.3895 86.1314 33.3684C86.4474 33.3557 86.5527 33.44 86.5527 33.7724C86.5264 34.7994 86.5402 35.8293 86.5402 36.8592Z" fill="#ECF0E6"/>
<path d="M86.7144 31.3819C86.7171 31.6757 86.6325 31.9637 86.4713 32.2095C86.3102 32.4553 86.0797 32.6479 85.8089 32.763C85.5382 32.8781 85.2394 32.9104 84.9503 32.8559C84.6612 32.8015 84.3947 32.6627 84.1846 32.4571C83.9744 32.2514 83.83 31.9882 83.7695 31.7007C83.7091 31.4131 83.7353 31.1141 83.845 30.8415C83.9546 30.5688 84.1427 30.3347 84.3855 30.1687C84.6283 30.0028 84.9148 29.9124 85.209 29.909C85.4059 29.9025 85.6021 29.9358 85.7857 30.0071C85.9693 30.0785 86.1365 30.1862 86.2772 30.3239C86.4179 30.4615 86.5292 30.6263 86.6043 30.8081C86.6795 30.99 86.717 31.1852 86.7144 31.3819Z" fill="#ECF0E6"/>
<path d="M56.6618 46.3384L56.8894 46.2678C57.6268 46.0343 57.9902 45.5135 57.9145 44.7814C57.9026 44.4544 57.7642 44.1448 57.5284 43.9176C57.2926 43.6904 56.9778 43.5633 56.6502 43.5631C56.0941 43.5169 55.5326 43.5388 54.9724 43.5199C54.7711 43.5137 54.6953 43.5861 54.6953 43.7901C54.7015 45.2041 54.6953 46.6181 54.7004 48.0331C54.7004 48.152 54.6848 48.2836 54.8753 48.2866C55.0658 48.2896 55.1261 48.2161 55.1218 48.0393C55.1166 47.708 55.1218 47.3764 55.1218 47.044C55.1218 46.2873 55.2346 46.2024 55.9921 46.3192C56.2356 46.357 56.2819 46.5516 56.3861 46.6948C56.6916 47.1156 56.9887 47.5513 57.2658 47.9942C57.2912 48.0581 57.3304 48.1157 57.3805 48.1628C57.4307 48.2099 57.4906 48.2454 57.5561 48.2668C57.6215 48.2882 57.6909 48.2949 57.7592 48.2865C57.8276 48.2781 57.8932 48.2548 57.9515 48.2182L56.6618 46.3384ZM55.3072 45.9354C55.1345 45.9416 55.1134 45.8303 55.1145 45.6987V44.9149C55.1145 43.9439 55.1145 43.942 56.0887 43.945C56.2626 43.9386 56.4369 43.9439 56.6101 43.9607C56.8376 43.9856 57.048 44.0929 57.2017 44.2621C57.3554 44.4314 57.4418 44.651 57.4444 44.8795C57.4641 45.1071 57.4011 45.3342 57.2669 45.5193C57.1328 45.7043 56.9364 45.8349 56.7138 45.8873C56.2474 45.9465 55.7765 45.9626 55.3072 45.9354Z" fill="#ECF0E6"/>
<path d="M63.8687 43.4571C62.4992 43.4643 61.6048 44.4324 61.6016 45.9188C61.6016 47.3665 62.5349 48.3816 63.8793 48.3892C65.2236 48.3967 66.1778 47.3792 66.1794 45.942C66.1829 44.4532 65.2485 43.4516 63.8687 43.4571ZM63.9033 47.9684C62.8014 47.9768 62.0072 47.1036 62.0251 45.8937C62.0429 44.6837 62.792 43.8727 63.8922 43.8727C64.9925 43.8727 65.741 44.7048 65.741 45.9074C65.741 47.1101 64.9758 47.96 63.9033 47.9684Z" fill="#ECF0E6"/>
<path d="M76.1594 45.9088C76.1594 45.2439 76.1689 44.5799 76.1543 43.9162C76.1481 43.6459 76.1892 43.5027 76.5166 43.5122C77.2868 43.5354 78.0569 43.5205 78.8279 43.5194C78.9903 43.5194 79.1575 43.5046 79.144 43.7478C79.1304 43.991 78.9481 43.9035 78.8279 43.9056C78.1958 43.9119 77.5636 43.9213 76.9318 43.9056C76.6536 43.8973 76.5851 43.9889 76.5756 44.2602C76.5261 45.6596 76.5188 45.6596 77.9287 45.6596H78.8758C78.9981 45.6596 79.1234 45.6396 79.1285 45.8312C79.1337 46.0228 79.0157 46.0501 78.8609 46.049C78.2288 46.049 77.5966 46.0617 76.9648 46.0417C76.6804 46.0333 76.554 46.0944 76.5751 46.4101C76.6057 46.8782 76.416 47.4911 76.6479 47.7778C76.8798 48.0646 77.5317 47.8513 77.9974 47.8757C78.2951 47.8913 78.5927 47.8757 78.8904 47.8757C79.0084 47.8757 79.1453 47.8473 79.1413 48.0429C79.1413 48.1808 79.1118 48.2797 78.9421 48.2786H76.3675C76.1094 48.2786 76.1567 48.0946 76.1567 47.9473C76.1578 47.2719 76.1594 46.5892 76.1594 45.9088Z" fill="#ECF0E6"/>
<path d="M98.9922 43.4708C99.5047 43.4384 100.01 43.6046 100.403 43.9348C100.528 44.0399 100.633 44.1264 100.47 44.3072C100.308 44.488 100.236 44.365 100.135 44.2767C99.9351 44.1045 99.698 43.9804 99.4424 43.9141C99.1867 43.8477 98.9192 43.8407 98.6604 43.8937C98.4653 43.9034 98.2796 43.9804 98.1351 44.1117C97.9907 44.243 97.8964 44.4203 97.8684 44.6134C97.8072 45.0491 98.12 45.2763 98.4867 45.4047C98.9313 45.5615 99.3916 45.6731 99.8308 45.8404C100.105 45.9157 100.342 46.0869 100.5 46.3228C100.658 46.5586 100.726 46.8433 100.691 47.1249C100.666 47.4144 100.546 47.6877 100.349 47.9018C100.152 48.1158 99.89 48.2585 99.6032 48.3075C99.2462 48.4 98.8725 48.4087 98.5116 48.3329C98.1506 48.2572 97.8121 48.099 97.5225 47.8708C97.4024 47.7762 97.1886 47.694 97.3623 47.4616C97.536 47.2292 97.6435 47.4165 97.7709 47.5194C98.0135 47.7363 98.3092 47.8852 98.628 47.951C98.9468 48.0168 99.2774 47.9971 99.5862 47.894C99.7745 47.847 99.9419 47.7388 100.062 47.5865C100.182 47.4342 100.248 47.2463 100.25 47.0524C100.254 46.8749 100.197 46.7013 100.089 46.5604C99.9808 46.4196 99.8275 46.32 99.6546 46.2782C99.3028 46.1476 98.924 46.0458 98.5579 45.9268C97.673 45.6355 97.3212 45.1904 97.4413 44.5296C97.5593 43.881 98.1598 43.4729 98.9922 43.4708Z" fill="#ECF0E6"/>
<path d="M49.6045 43.5246C49.1147 43.5068 48.6227 43.5403 48.1296 43.5152C47.8136 43.4984 47.7508 43.6203 47.7578 43.9033C47.7779 44.567 47.7641 45.2321 47.7641 45.8958V47.9938C47.7641 48.1233 47.7229 48.2757 47.9505 48.2873C48.1992 48.3 48.1865 48.1484 48.1843 47.9854V47.6698C48.1905 47.2352 48.0306 46.6544 48.2495 46.4072C48.5044 46.1147 49.1017 46.322 49.5484 46.3115C50.3995 46.2904 51.0011 45.7245 51.0021 44.9186C51.0063 44.7343 50.973 44.551 50.9042 44.3798C50.8354 44.2087 50.7326 44.0533 50.6019 43.923C50.4713 43.7927 50.3155 43.6902 50.1441 43.6218C49.9726 43.5533 49.7891 43.5202 49.6045 43.5246ZM49.6518 45.8929C49.4955 45.9036 49.3387 45.9064 49.182 45.9012C48.1897 45.9012 48.1897 45.9012 48.1897 44.8608C48.2319 44.5862 48.0474 44.0549 48.2687 43.9803C48.7395 43.8666 49.2289 43.8518 49.7057 43.937C50.2504 43.996 50.54 44.4105 50.521 44.964C50.5246 45.201 50.436 45.4301 50.2739 45.6032C50.1118 45.7763 49.8888 45.8798 49.6518 45.8921V45.8929Z" fill="#ECF0E6"/>
<path d="M83.3067 45.9426C83.3216 46.7568 83.629 47.4082 84.3824 47.7803C84.7154 47.9649 85.1005 48.0334 85.4769 47.9751C85.8533 47.9168 86.1995 47.7351 86.4609 47.4584C86.6073 47.3206 86.718 47.2995 86.859 47.4333C87.0698 47.6344 86.8116 47.7035 86.7337 47.7816C86.0615 48.4508 84.9206 48.5581 83.9505 48.0605C83.1614 47.6565 82.6673 46.4931 82.857 45.4661C82.9106 45.0203 83.0978 44.6009 83.394 44.2631C83.6903 43.9252 84.0817 43.6845 84.5172 43.5725C84.8993 43.4358 85.3124 43.4104 85.7084 43.4993C86.1044 43.5881 86.4669 43.7876 86.7537 44.0743C86.8379 44.1576 87.0287 44.2384 86.8517 44.4038C86.721 44.5267 86.6106 44.5362 86.4599 44.3859C86.2014 44.1052 85.8559 43.9193 85.479 43.8583C85.102 43.7972 84.7154 43.8644 84.3813 44.0492C83.616 44.4202 83.2973 45.101 83.3067 45.9426Z" fill="#ECF0E6"/>
<path d="M91.8552 46.0938C91.8552 45.4836 91.8436 44.8723 91.8604 44.262C91.8677 43.9969 91.8014 43.8823 91.5137 43.9042C91.1976 43.9294 90.8816 43.9115 90.5709 43.9094C90.4329 43.9094 90.2803 43.9272 90.2938 43.7053C90.3054 43.5286 90.4234 43.5234 90.5487 43.5234H93.5914C93.7484 43.5234 93.8642 43.5413 93.858 43.7434C93.8518 43.9456 93.7251 43.9107 93.6052 43.9129H93.5C93.1198 43.9361 92.6246 43.7507 92.3875 43.9856C92.1264 44.2423 92.3063 44.7453 92.3012 45.1428C92.2863 46.0676 92.3012 46.9924 92.2928 47.9172C92.2928 48.0677 92.3813 48.2845 92.082 48.2929C91.7827 48.3012 91.8617 48.0823 91.8598 47.931C91.8512 47.3164 91.8552 46.7051 91.8552 46.0938Z" fill="#ECF0E6"/>
<path d="M71.6683 45.3834V43.8127C71.6683 43.6276 71.701 43.5086 71.9221 43.5181C72.1224 43.5265 72.1329 43.6505 72.1329 43.8032C72.1191 44.9186 72.1172 46.0358 72.0918 47.1508C72.0958 47.4079 72.0132 47.6588 71.857 47.8632C71.7008 48.0676 71.4803 48.2136 71.231 48.2775C70.9581 48.3778 70.6632 48.4025 70.3774 48.3492C70.0916 48.2959 69.8255 48.1664 69.6073 47.9746C69.4682 47.8524 69.4282 47.7495 69.5705 47.5854C69.7129 47.4214 69.7927 47.5314 69.8866 47.6276C70.0386 47.8002 70.245 47.9159 70.4717 47.9557C70.6984 47.9955 70.932 47.957 71.1338 47.8465C71.5668 47.6359 71.6815 47.25 71.6702 46.7944C71.6588 46.326 71.6683 45.8547 71.6683 45.3834Z" fill="#ECF0E6"/>
<path d="M16.8721 0V40.1968C28.22 40.1968 37.4144 31.1996 37.4144 20.1022C37.4144 9.00482 28.22 0 16.8721 0Z" fill="#1BB1A1"/>
<path d="M16.8721 23.0996V65.9992C28.9869 65.9992 38.8018 56.3958 38.8018 44.5496C38.8018 32.7033 28.9837 23.0996 16.8721 23.0996Z" fill="#6FB748"/>
<path d="M21.4494 11.916V53.8781C9.60332 53.8781 0 44.4852 0 32.8984C0 21.3116 9.60332 11.916 21.4494 11.916Z" fill="#B9D040"/>
</svg>
