<svg width="103" height="66" viewBox="0 0 103 66" fill="none" xmlns="http://www.w3.org/2000/svg">
<path d="M54.884 24.1974C55.1817 24.0838 55.4523 23.9091 55.6782 23.6846C55.9042 23.4601 56.0804 23.1908 56.1956 22.894C56.339 22.5199 56.3888 22.1165 56.3408 21.7188C56.2927 21.3211 56.1483 20.9411 55.92 20.6117C55.6917 20.2824 55.3865 20.0136 55.0307 19.8286C54.6749 19.6437 54.2793 19.5482 53.8782 19.5504C51.883 19.4872 49.8856 19.5367 47.8883 19.5261C47.6344 19.5261 47.5635 19.6072 47.566 19.8545C47.573 22.8438 47.573 25.8331 47.566 28.8223C47.566 29.0958 47.6439 29.1809 47.921 29.1801C49.9005 29.1695 51.88 29.1801 53.8595 29.1695C54.1049 29.1607 54.3486 29.1255 54.5863 29.0644C55.1282 28.941 55.6141 28.6424 55.9686 28.2149C56.3231 27.7875 56.5264 27.2551 56.5469 26.7005C56.6053 26.1551 56.4711 25.6065 56.1675 25.1495C55.8639 24.6924 55.4099 24.3557 54.884 24.1974ZM51.355 21.9292H52.7641C52.9114 21.9285 53.0534 21.9842 53.1608 22.0849C53.2682 22.1857 53.3328 22.3237 53.3413 22.4706C53.3498 22.6175 53.3015 22.762 53.2065 22.8744C53.1114 22.9869 52.9768 23.0586 52.8304 23.0748C52.1341 23.1126 51.4357 23.0937 50.7391 23.0991C50.6127 23.0991 50.5443 23.0451 50.5473 22.9151C50.5483 22.8979 50.5483 22.8807 50.5473 22.8635C50.426 21.9881 50.481 21.927 51.3542 21.927L51.355 21.9292ZM53.5442 26.1965C53.4842 26.6427 53.203 26.8024 52.7657 26.764C52.4886 26.7408 52.2074 26.764 51.9282 26.764H51.4013C50.5448 26.764 50.3478 26.5062 50.5416 25.6614C50.586 25.4636 50.7018 25.4668 50.8438 25.4668C51.5066 25.4668 52.1698 25.4511 52.8317 25.4784C53.3069 25.4925 53.5957 25.8038 53.544 26.1965H53.5442Z" fill="#ECF0E6"/>
<path d="M47.0254 35.5441C47.0045 34.2869 47.4657 33.0693 48.3145 32.1406C49.1634 31.2119 50.3355 30.6424 51.5911 30.5488C53.4989 30.3866 55.1328 30.8328 56.298 32.4584C56.8912 33.2864 56.8901 33.2875 55.9768 33.7072C55.766 33.8018 55.5682 33.9039 55.3617 33.9985C55.0665 34.1841 54.7447 34.3236 54.4073 34.412C53.9922 34.4593 53.9995 33.9418 53.754 33.7196C53.4394 33.412 53.0383 33.2075 52.6043 33.1334C52.1702 33.0594 51.7239 33.1192 51.3248 33.3051C50.9063 33.5297 50.5615 33.8701 50.3319 34.2855C50.1023 34.701 49.9975 35.1737 50.0302 35.6471C50.1355 37.0083 51.0531 37.9312 52.2992 37.9153C52.6703 37.921 53.0354 37.8216 53.3524 37.6287C53.6693 37.4359 53.9251 37.1573 54.0901 36.8254C54.2333 36.5613 54.345 36.5413 54.597 36.6654C55.1923 36.96 55.7906 37.2472 56.4068 37.4902C56.7797 37.6375 56.767 37.8058 56.5911 38.1026C55.5314 39.9111 53.9226 40.6538 51.8757 40.5054C49.5307 40.3349 47.8104 38.9947 47.211 36.9135C47.074 36.4704 47.0113 36.0077 47.0254 35.5441Z" fill="#ECF0E6"/>
<path d="M68.1786 24.474C68.5999 23.8205 69.034 23.1725 69.4429 22.512C69.5 22.3964 69.5912 22.3011 69.7043 22.2388C69.8173 22.1765 69.9466 22.1503 70.075 22.1636C70.9653 22.1879 71.8564 22.172 72.852 22.172C72.5949 22.5203 72.3852 22.8095 72.1703 23.0936C71.6751 23.75 71.1926 24.4159 70.6744 25.0537C70.6305 25.0933 70.5951 25.1413 70.5704 25.195C70.5456 25.2486 70.5321 25.3067 70.5305 25.3658C70.5289 25.4248 70.5394 25.4835 70.5612 25.5384C70.5831 25.5933 70.6159 25.6432 70.6576 25.685C71.3677 26.7033 72.0545 27.7389 72.7478 28.7659C72.8225 28.8775 72.888 28.9953 72.9965 29.174C71.9536 29.174 70.9802 29.1678 70.0068 29.174C69.7825 29.174 69.714 29.0456 69.6296 28.8856C69.2978 28.2543 68.9553 27.6295 68.6089 26.992C68.42 27.1341 68.272 27.3233 68.1795 27.5407C68.0871 27.758 68.0535 27.9958 68.0823 28.2302C68.115 29.1761 68.0917 29.1761 67.1351 29.1761C66.697 29.1761 66.2576 29.1613 65.8205 29.1761C65.5445 29.1888 65.4614 29.0972 65.4614 28.8205C65.4712 25.8284 65.4712 22.8363 65.4614 19.844C65.4614 19.5851 65.5467 19.5178 65.7921 19.5284C66.4416 19.5422 67.091 19.5505 67.7378 19.5284C68.0538 19.5168 68.1064 19.6335 68.1045 19.9157C68.0907 21.4201 68.0982 22.9257 68.0982 24.4289L68.1786 24.474Z" fill="#ECF0E6"/>
<path d="M78.1287 28.4152C77.7429 28.7787 77.2778 29.0478 76.7702 29.2013C76.2625 29.3549 75.7262 29.3887 75.2032 29.3001C74.7167 29.2672 74.2611 29.0499 73.9298 28.6926C73.5984 28.3353 73.4163 27.865 73.4207 27.378C73.405 25.7684 73.4207 24.1588 73.4102 22.5489C73.4102 22.2516 73.4913 22.1554 73.7925 22.167C74.3708 22.1892 74.9513 22.1975 75.5277 22.167C75.9279 22.1448 76.0724 22.2416 76.0543 22.6762C76.0196 23.7766 76.0543 24.8855 76.0386 25.983C76.0386 26.447 76.1493 26.8194 76.6317 26.9718C76.878 27.0378 77.1378 27.0351 77.3826 26.9638C77.6274 26.8926 77.848 26.7556 78.0202 26.5678C78.1082 26.4162 78.1399 26.2385 78.1098 26.0659C78.1098 24.9087 78.1236 23.7515 78.1047 22.6016C78.0984 22.2543 78.2026 22.1513 78.5482 22.167C79.1614 22.1954 79.7765 22.1881 80.3883 22.167C80.6654 22.1586 80.7477 22.251 80.7466 22.5237C80.7381 24.6238 80.7381 26.7237 80.7466 28.8236C80.7466 29.0938 80.6654 29.1909 80.3883 29.1792C79.8806 29.1592 79.3706 29.1592 78.8629 29.1792C78.411 29.196 77.962 29.2484 78.1287 28.4152Z" fill="#ECF0E6"/>
<path d="M64.1484 24.5346C64.0967 23.3068 63.4816 22.5598 62.2923 22.2201C61.5431 22.0021 60.7571 21.9396 59.9828 22.0364C59.2085 22.1332 58.4622 22.3873 57.7899 22.7831C57.4528 22.9722 57.4003 23.1482 57.6308 23.4649C57.8108 23.722 57.9624 23.9978 58.0827 24.2876C58.2197 24.6032 58.342 24.6929 58.6716 24.4686C59.1588 24.1504 59.7347 23.995 60.3161 24.0246C61.3327 24.0435 61.6691 24.4454 61.5119 25.4975C60.8061 24.9421 59.9908 24.8316 59.1384 24.881C57.9618 24.9505 57.2033 25.5913 57.0474 26.635C56.9472 27.1645 57.0411 27.7123 57.3118 28.1784C57.5826 28.6445 58.0122 28.9978 58.5222 29.1737C59.5914 29.5461 60.6102 29.3253 61.5971 28.534C61.3465 29.2443 61.7657 29.1748 62.1437 29.1654C62.722 29.1591 63.3025 29.1548 63.8778 29.1654C64.1021 29.1705 64.1844 29.1054 64.1822 28.8729C64.1652 27.4341 64.2052 25.9864 64.1484 24.5346ZM61.2323 27.4803C61.0477 27.5786 60.8421 27.6312 60.6329 27.6338C60.3861 27.6489 60.1391 27.6079 59.9104 27.5138C59.8296 27.4803 59.7606 27.4237 59.7118 27.3511C59.6631 27.2785 59.6369 27.1931 59.6366 27.1058C59.6274 27.0096 59.6507 26.913 59.7028 26.8316C59.755 26.7502 59.8329 26.6886 59.9242 26.6566C60.1348 26.5701 60.3612 26.5291 60.5888 26.5364C60.8163 26.5436 61.0397 26.599 61.2443 26.6988C61.3284 26.7247 61.402 26.7769 61.4542 26.8477C61.5064 26.9186 61.5344 27.0043 61.5341 27.0922C61.5287 27.1807 61.4964 27.2654 61.4417 27.3351C61.3869 27.4048 61.3122 27.4562 61.2275 27.4825L61.2323 27.4803Z" fill="#ECF0E6"/>
<path d="M77.4046 35.7381C77.3602 34.5071 76.7619 33.7612 75.5799 33.3972C74.1897 32.9738 72.6895 33.103 71.3925 33.7579C70.6118 34.1263 70.6202 34.146 71.0237 34.8806C71.149 35.11 71.3019 35.3276 71.406 35.5665C71.5102 35.8054 71.6074 35.821 71.8274 35.68C72.3575 35.3306 72.9836 35.1556 73.6183 35.1792C74.5811 35.2138 74.935 35.6727 74.7548 36.6521C74.0946 36.1796 73.2859 35.9607 72.4771 36.0356C71.2193 36.0883 70.407 36.7794 70.2922 37.8758C70.2026 38.4539 70.3413 39.0442 70.6789 39.5222C71.0165 40.0003 71.5267 40.3288 72.1021 40.4386C73.067 40.6575 73.9341 40.4207 74.8125 39.7359C74.6882 40.2789 74.9177 40.3483 75.2928 40.3305C75.9049 40.301 76.52 40.3148 77.1329 40.3305C77.3437 40.3305 77.4428 40.2927 77.4395 40.0475C77.4233 38.6114 77.4571 37.171 77.4046 35.7381ZM74.5781 38.5925C74.3069 38.7445 73.9985 38.8175 73.6878 38.803C73.5266 38.7786 73.3672 38.7435 73.2107 38.6979C73.1171 38.6725 73.0348 38.6161 72.9774 38.538C72.9199 38.4598 72.8908 38.3645 72.8947 38.2676C72.8856 38.1709 72.9088 38.0739 72.9606 37.9917C73.0124 37.9095 73.09 37.8467 73.1812 37.8131C73.4072 37.7147 73.6538 37.6729 73.8996 37.6912C74.1454 37.7095 74.3831 37.7874 74.5919 37.9182C74.6564 37.9487 74.7107 37.9971 74.7483 38.0576C74.7859 38.1182 74.8052 38.1883 74.8038 38.2595C74.8024 38.3308 74.7805 38.4001 74.7406 38.4592C74.7007 38.5182 74.6445 38.5645 74.5789 38.5925H74.5781Z" fill="#ECF0E6"/>
<path d="M66.447 33.1644C64.8258 33.1455 63.5542 33.8303 62.8769 35.2813C62.5496 35.918 62.4247 36.6393 62.5188 37.3488C62.6129 38.0583 62.9215 38.7222 63.4035 39.2519C64.596 40.6572 67.8374 40.9353 69.283 39.7778C69.4515 39.6427 69.4453 39.5527 69.3336 39.397C69.1151 39.1023 68.9115 38.7968 68.7236 38.4817C68.5299 38.1471 68.3835 37.9936 67.9418 38.2314C67.1622 38.6522 65.7591 38.6417 65.3229 37.6098H69.6713C69.8545 37.6098 70.0453 37.6666 70.0601 37.3469C70.1605 34.9297 68.6971 33.1907 66.447 33.1644ZM67.2212 35.9694C66.9251 35.9621 66.628 35.9694 66.332 35.9694C66.1044 35.9694 65.8779 35.9756 65.6514 35.9694C65.5386 35.9694 65.3765 36.0326 65.3353 35.881C65.3142 35.8054 65.3911 35.6864 65.449 35.6054C65.882 34.9919 67.0396 35.0235 67.3863 35.6537C67.4932 35.844 67.5099 35.9756 67.2215 35.9702L67.2212 35.9694Z" fill="#ECF0E6"/>
<path d="M99.1217 33.1632C97.4026 33.1243 95.895 34.1007 95.3787 35.5831C94.8456 37.1138 95.304 38.8445 96.5764 39.7147C98.1703 40.8014 99.88 40.6606 101.578 39.9641C102.183 39.7158 102.166 39.6728 101.789 39.1088C101.594 38.8185 101.385 38.5386 101.207 38.2388C101.092 38.0472 100.996 38.017 100.803 38.141C100.425 38.3659 99.9922 38.481 99.5526 38.4734C98.8982 38.4872 98.3148 38.3367 97.9524 37.6043H102.292C102.454 37.6043 102.657 37.7043 102.693 37.3675C102.939 35.0888 101.358 33.2138 99.1217 33.1632ZM98.2304 35.9712C97.9143 35.9774 97.9143 35.8595 98.0629 35.6439C98.1907 35.4661 98.3658 35.3275 98.5684 35.2438C98.7709 35.1602 98.9929 35.1347 99.2091 35.1704C99.6716 35.1988 99.9709 35.4606 100.183 35.9668C99.4798 35.9671 98.8552 35.9576 98.2304 35.9703V35.9712Z" fill="#ECF0E6"/>
<path d="M91.1952 37.2708C91.5776 36.1503 91.9232 35.152 92.2614 34.1505C92.5342 33.3397 92.532 33.3383 93.3907 33.3383C93.9175 33.3383 94.4441 33.3478 94.9707 33.3383C95.2278 33.3321 95.3204 33.3867 95.2143 33.654C94.3777 35.7778 93.5473 37.9038 92.7228 40.032C92.7033 40.1235 92.6502 40.2045 92.574 40.259C92.4978 40.3134 92.404 40.3376 92.3109 40.3265C91.5735 40.3128 90.8361 40.3182 90.0987 40.3265C89.9093 40.3265 89.7932 40.2995 89.7109 40.0833C88.8566 37.858 87.9853 35.6382 87.0898 33.3405H89.6877C89.9732 33.3405 89.9583 33.5805 90.0124 33.7445C90.3988 34.872 90.7728 36.0074 91.1952 37.2708Z" fill="#ECF0E6"/>
<path d="M79.239 37.1995V36.623C79.239 36.3073 79.3297 35.9287 79.1863 35.7014C79.0428 35.4742 78.6342 35.6236 78.3436 35.6204C78.0803 35.6204 78.077 35.4752 78.0792 35.2836C78.0792 34.7577 78.0992 34.2315 78.0792 33.7108C78.0654 33.4024 78.1845 33.334 78.4689 33.3311C79.2442 33.3216 79.2431 33.3089 79.2431 32.5252C79.2431 31.4131 79.2431 31.409 80.3555 31.4142C80.8426 31.4142 81.4786 31.2585 81.7746 31.5025C82.0907 31.7603 81.8799 32.4214 81.862 32.9008C81.8482 33.3048 82.0211 33.347 82.3551 33.3438C83.3127 33.3343 83.3127 33.3438 83.3127 34.2896V34.4475C83.3033 34.8115 83.4245 35.2712 83.2475 35.5142C83.0527 35.7814 82.5637 35.5952 82.2057 35.6047C81.9621 35.6109 81.8623 35.6742 81.8696 35.932C81.8864 36.4582 81.8569 36.9841 81.8812 37.5038C81.9083 38.0443 82.1729 38.2507 82.706 38.1351C82.9369 38.0867 83.001 38.1351 83.0421 38.3551C83.1072 38.7842 83.2102 39.2067 83.3498 39.6177C83.5079 40.0385 83.3119 40.1901 82.978 40.2995C82.1964 40.5772 81.3451 40.5909 80.555 40.3384C79.7123 40.0585 79.2793 39.4009 79.2444 38.3964C79.2274 38.0043 79.239 37.6013 79.239 37.1995Z" fill="#ECF0E6"/>
<path d="M60.0663 34.0601C60.5894 33.6121 61.2218 33.3101 61.8994 33.1848C62.147 33.1426 62.2872 33.1742 62.2734 33.4931C62.2463 34.1044 62.2545 34.7176 62.2734 35.3308C62.2807 35.5854 62.2239 35.677 61.9573 35.6181C61.7668 35.5865 61.5727 35.5833 61.3812 35.6087C60.3172 35.7003 60.1351 35.8981 60.1351 36.9448C60.1351 37.9253 60.1245 38.9049 60.1413 39.8843C60.1413 40.2051 60.0929 40.3524 59.72 40.3316C59.0878 40.2959 58.4557 40.3105 57.8238 40.3316C57.5721 40.3378 57.495 40.26 57.4961 40.0073C57.5045 37.9031 57.5077 35.8073 57.4961 33.7085C57.4961 33.3929 57.6173 33.3288 57.8974 33.3383C58.4051 33.3561 58.9152 33.3583 59.4228 33.3383C59.8788 33.3153 60.3074 33.2975 60.0663 34.0601Z" fill="#ECF0E6"/>
<path d="M86.7434 36.8592C86.7434 37.8713 86.7339 38.8845 86.7496 39.8966C86.7496 40.2123 86.7085 40.3701 86.3283 40.349C85.6961 40.3134 85.064 40.3301 84.4394 40.3439C84.194 40.349 84.1044 40.2788 84.1055 40.0196C84.114 37.9076 84.114 35.7958 84.1055 33.6841C84.1055 33.4189 84.2107 33.3633 84.4456 33.3684C85.0778 33.38 85.7099 33.3895 86.3345 33.3684C86.6505 33.3557 86.7558 33.44 86.7558 33.7724C86.7296 34.7994 86.7434 35.8293 86.7434 36.8592Z" fill="#ECF0E6"/>
<path d="M86.9176 31.3819C86.9202 31.6757 86.8356 31.9637 86.6744 32.2095C86.5133 32.4553 86.2828 32.6479 86.0121 32.763C85.7414 32.8781 85.4426 32.9104 85.1535 32.8559C84.8643 32.8015 84.5979 32.6627 84.3877 32.4571C84.1776 32.2514 84.0331 31.9882 83.9727 31.7007C83.9122 31.4131 83.9385 31.1141 84.0481 30.8415C84.1577 30.5688 84.3458 30.3347 84.5886 30.1687C84.8314 30.0028 85.118 29.9124 85.4122 29.909C85.609 29.9025 85.8052 29.9358 85.9888 30.0071C86.1724 30.0785 86.3396 30.1862 86.4803 30.3239C86.621 30.4615 86.7323 30.6263 86.8075 30.8081C86.8826 30.99 86.9201 31.1852 86.9176 31.3819Z" fill="#ECF0E6"/>
<path d="M56.8649 46.3384L57.0925 46.2678C57.8299 46.0343 58.1934 45.5135 58.1176 44.7814C58.1057 44.4544 57.9673 44.1448 57.7315 43.9176C57.4957 43.6904 57.1809 43.5633 56.8533 43.5631C56.2972 43.5169 55.7357 43.5388 55.1755 43.5199C54.9742 43.5137 54.8984 43.5861 54.8984 43.7901C54.9047 45.2041 54.8984 46.6181 54.9036 48.0331C54.9036 48.152 54.8879 48.2836 55.0784 48.2866C55.2689 48.2896 55.3292 48.2161 55.3249 48.0393C55.3198 47.708 55.3249 47.3764 55.3249 47.044C55.3249 46.2873 55.4378 46.2024 56.1952 46.3192C56.4387 46.357 56.485 46.5516 56.5892 46.6948C56.8947 47.1156 57.1918 47.5513 57.4689 47.9942C57.4943 48.0581 57.5335 48.1157 57.5837 48.1628C57.6338 48.2099 57.6937 48.2454 57.7592 48.2668C57.8246 48.2882 57.894 48.2949 57.9623 48.2865C58.0307 48.2781 58.0963 48.2548 58.1546 48.2182L56.8649 46.3384ZM55.5103 45.9354C55.3376 45.9416 55.3165 45.8303 55.3176 45.6987V44.9149C55.3176 43.9439 55.3176 43.942 56.2918 43.945C56.4658 43.9386 56.64 43.9439 56.8133 43.9607C57.0407 43.9856 57.2511 44.0929 57.4048 44.2621C57.5585 44.4314 57.6449 44.651 57.6475 44.8795C57.6672 45.1071 57.6042 45.3342 57.4701 45.5193C57.3359 45.7043 57.1396 45.8349 56.9169 45.8873C56.4505 45.9465 55.9796 45.9626 55.5103 45.9354Z" fill="#ECF0E6"/>
<path d="M64.0718 43.4571C62.7023 43.4643 61.8079 44.4324 61.8047 45.9188C61.8047 47.3665 62.738 48.3816 64.0824 48.3892C65.4268 48.3967 66.3809 47.3792 66.3826 45.942C66.3861 44.4532 65.4517 43.4516 64.0718 43.4571ZM64.1065 47.9684C63.0046 47.9768 62.2103 47.1036 62.2282 45.8937C62.246 44.6837 62.9951 43.8727 64.0954 43.8727C65.1957 43.8727 65.9442 44.7048 65.9442 45.9074C65.9442 47.1101 65.1789 47.96 64.1065 47.9684Z" fill="#ECF0E6"/>
<path d="M76.3626 45.9088C76.3626 45.2439 76.372 44.5799 76.3574 43.9162C76.3512 43.6459 76.3923 43.5027 76.7198 43.5122C77.4899 43.5354 78.2601 43.5205 79.031 43.5194C79.1934 43.5194 79.3606 43.5046 79.3471 43.7478C79.3336 43.991 79.1512 43.9035 79.031 43.9056C78.3989 43.9119 77.7667 43.9213 77.1349 43.9056C76.8567 43.8973 76.7882 43.9889 76.7788 44.2602C76.7292 45.6596 76.7219 45.6596 78.1318 45.6596H79.0789C79.2012 45.6596 79.3265 45.6396 79.3317 45.8312C79.3368 46.0228 79.2188 46.0501 79.064 46.049C78.4319 46.049 77.7998 46.0617 77.1679 46.0417C76.8835 46.0333 76.7571 46.0944 76.7782 46.4101C76.8088 46.8782 76.6191 47.4911 76.851 47.7778C77.0829 48.0646 77.7348 47.8513 78.2005 47.8757C78.4982 47.8913 78.7959 47.8757 79.0935 47.8757C79.2115 47.8757 79.3484 47.8473 79.3444 48.0429C79.3444 48.1808 79.3149 48.2797 79.1452 48.2786H76.5707C76.3125 48.2786 76.3599 48.0946 76.3599 47.9473C76.3609 47.2719 76.3626 46.5892 76.3626 45.9088Z" fill="#ECF0E6"/>
<path d="M99.1953 43.4708C99.7078 43.4384 100.213 43.6046 100.606 43.9348C100.731 44.0399 100.836 44.1264 100.673 44.3072C100.511 44.488 100.44 44.365 100.338 44.2767C100.138 44.1045 99.9012 43.9804 99.6455 43.9141C99.3898 43.8477 99.1223 43.8407 98.8635 43.8937C98.6684 43.9034 98.4828 43.9804 98.3383 44.1117C98.1938 44.243 98.0995 44.4203 98.0715 44.6134C98.0103 45.0491 98.3231 45.2763 98.6898 45.4047C99.1344 45.5615 99.5947 45.6731 100.034 45.8404C100.308 45.9157 100.545 46.0869 100.703 46.3228C100.861 46.5586 100.929 46.8433 100.894 47.1249C100.869 47.4144 100.749 47.6877 100.552 47.9018C100.356 48.1158 100.093 48.2585 99.8063 48.3075C99.4493 48.4 99.0757 48.4087 98.7147 48.3329C98.3537 48.2572 98.0152 48.099 97.7256 47.8708C97.6055 47.7762 97.3917 47.694 97.5654 47.4616C97.7392 47.2292 97.8466 47.4165 97.9741 47.5194C98.2166 47.7363 98.5123 47.8852 98.8311 47.951C99.15 48.0168 99.4805 47.9971 99.7893 47.894C99.9777 47.847 100.145 47.7388 100.265 47.5865C100.385 47.4342 100.451 47.2463 100.453 47.0524C100.457 46.8749 100.4 46.7013 100.292 46.5604C100.184 46.4196 100.031 46.32 99.8578 46.2782C99.506 46.1476 99.1271 46.0458 98.761 45.9268C97.8761 45.6355 97.5243 45.1904 97.6445 44.5296C97.7624 43.881 98.3629 43.4729 99.1953 43.4708Z" fill="#ECF0E6"/>
<path d="M49.8076 43.5246C49.3178 43.5068 48.8258 43.5403 48.3328 43.5152C48.0167 43.4984 47.9539 43.6203 47.961 43.9033C47.981 44.567 47.9672 45.2321 47.9672 45.8958V47.9938C47.9672 48.1233 47.9261 48.2757 48.1536 48.2873C48.4023 48.3 48.3896 48.1484 48.3874 47.9854V47.6698C48.3937 47.2352 48.2337 46.6544 48.4527 46.4072C48.7076 46.1147 49.3048 46.322 49.7516 46.3115C50.6026 46.2904 51.2042 45.7245 51.2053 44.9186C51.2094 44.7343 51.1761 44.551 51.1073 44.3798C51.0385 44.2087 50.9357 44.0533 50.805 43.923C50.6744 43.7927 50.5186 43.6902 50.3472 43.6218C50.1757 43.5533 49.9922 43.5202 49.8076 43.5246ZM49.8549 45.8929C49.6986 45.9036 49.5418 45.9064 49.3852 45.9012C48.3928 45.9012 48.3929 45.9012 48.3929 44.8608C48.4351 44.5862 48.2505 44.0549 48.4719 43.9803C48.9427 43.8666 49.432 43.8518 49.9088 43.937C50.4535 43.996 50.7431 44.4105 50.7241 44.964C50.7277 45.201 50.6392 45.4301 50.4771 45.6032C50.315 45.7763 50.0919 45.8798 49.8549 45.8921V45.8929Z" fill="#ECF0E6"/>
<path d="M83.5098 45.9426C83.5247 46.7568 83.8322 47.4082 84.5855 47.7803C84.9186 47.9649 85.3036 48.0334 85.68 47.9751C86.0564 47.9168 86.4026 47.7351 86.6641 47.4584C86.8105 47.3206 86.9211 47.2995 87.0621 47.4333C87.2729 47.6344 87.0148 47.7035 86.9368 47.7816C86.2646 48.4508 85.1238 48.5581 84.1536 48.0605C83.3645 47.6565 82.8704 46.4931 83.0601 45.4661C83.1138 45.0203 83.301 44.6009 83.5972 44.2631C83.8934 43.9252 84.2848 43.6845 84.7203 43.5725C85.1024 43.4358 85.5155 43.4104 85.9115 43.4993C86.3075 43.5881 86.67 43.7876 86.9569 44.0743C87.041 44.1576 87.2318 44.2384 87.0548 44.4038C86.9241 44.5267 86.8137 44.5362 86.663 44.3859C86.4045 44.1052 86.059 43.9193 85.6821 43.8583C85.3051 43.7972 84.9185 43.8644 84.5844 44.0492C83.8192 44.4202 83.5004 45.101 83.5098 45.9426Z" fill="#ECF0E6"/>
<path d="M92.0583 46.0919C92.0583 45.4816 92.0467 44.8703 92.0635 44.2601C92.0708 43.995 92.0045 43.8804 91.7168 43.9023C91.4008 43.9274 91.0847 43.9096 90.774 43.9074C90.636 43.9074 90.4834 43.9252 90.4969 43.7034C90.5086 43.5266 90.6266 43.5215 90.7519 43.5215H93.7946C93.9515 43.5215 94.0673 43.5393 94.0611 43.7415C94.0549 43.9436 93.9282 43.9088 93.8084 43.9109H93.7031C93.3229 43.9342 92.8277 43.7488 92.5906 43.9836C92.3295 44.2404 92.5095 44.7433 92.5043 45.1408C92.4894 46.0656 92.5043 46.9905 92.4959 47.9153C92.4959 48.0658 92.5844 48.2825 92.2851 48.2909C91.9858 48.2993 92.0648 48.0804 92.0629 47.929C92.0543 47.3145 92.0583 46.7032 92.0583 46.0919Z" fill="#ECF0E6"/>
<path d="M71.8714 45.3834V43.8127C71.8714 43.6276 71.9041 43.5086 72.1252 43.5181C72.3255 43.5265 72.336 43.6505 72.336 43.8032C72.3222 44.9186 72.3203 46.0358 72.2949 47.1508C72.299 47.4079 72.2163 47.6588 72.0601 47.8632C71.904 48.0676 71.6834 48.2136 71.4341 48.2775C71.1612 48.3778 70.8663 48.4025 70.5805 48.3492C70.2947 48.2959 70.0287 48.1664 69.8104 47.9746C69.6714 47.8524 69.6313 47.7495 69.7736 47.5854C69.916 47.4214 69.9958 47.5314 70.0897 47.6276C70.2418 47.8002 70.4481 47.9159 70.6749 47.9557C70.9016 47.9955 71.1351 47.957 71.3369 47.8465C71.7699 47.6359 71.8847 47.25 71.8733 46.7944C71.8619 46.326 71.8714 45.8547 71.8714 45.3834Z" fill="#ECF0E6"/>
<path d="M17.0752 0V40.1968C28.4231 40.1968 37.6176 31.1996 37.6176 20.1022C37.6176 9.00482 28.4231 0 17.0752 0Z" fill="#1BB1A1"/>
<path d="M17.0752 23.0996V65.9992C29.19 65.9992 39.005 56.3958 39.005 44.5496C39.005 32.7033 29.1868 23.0996 17.0752 23.0996Z" fill="#6FB748"/>
<path d="M21.6526 11.916V53.8781C9.80645 53.8781 0.203125 44.4852 0.203125 32.8984C0.203125 21.3116 9.80645 11.916 21.6526 11.916Z" fill="#B9D040"/>
</svg>
