<svg width="16" height="16" viewBox="0 0 16 16" fill="none" xmlns="http://www.w3.org/2000/svg">
<path d="M11.0128 0.5H4.96025C3.77761 0.50139 2.64383 0.971857 1.80765 1.80818C0.971467 2.6445 0.501191 3.77836 0.5 4.961L0.5 11.0135C0.50139 12.1961 0.971857 13.3299 1.80818 14.1661C2.6445 15.0023 3.77836 15.4726 4.961 15.4738H11.0135C12.1961 15.4724 13.3299 15.0019 14.1661 14.1656C15.0023 13.3293 15.4726 12.1954 15.4738 11.0128V4.96025C15.4724 3.77761 15.0019 2.64383 14.1656 1.80765C13.3293 0.971467 12.1954 0.501191 11.0128 0.5V0.5ZM13.9678 11.0128C13.9678 11.4008 13.8913 11.7851 13.7428 12.1436C13.5943 12.5021 13.3766 12.8279 13.1023 13.1023C12.8279 13.3766 12.5021 13.5943 12.1436 13.7428C11.7851 13.8913 11.4008 13.9678 11.0128 13.9678H4.96025C4.17667 13.9676 3.42524 13.6561 2.87123 13.102C2.31723 12.5478 2.006 11.7963 2.006 11.0128V4.96025C2.0062 4.17667 2.31762 3.42524 2.87176 2.87123C3.42591 2.31723 4.17742 2.006 4.961 2.006H11.0135C11.7971 2.0062 12.5485 2.31762 13.1025 2.87176C13.6565 3.42591 13.9678 4.17742 13.9678 4.961V11.0135V11.0128Z" fill="#828282"/>
<path d="M7.98869 4.11328C6.96226 4.11487 5.97834 4.52337 5.25261 5.24924C4.52689 5.9751 4.11858 6.9591 4.11719 7.98553C4.11838 9.01222 4.5267 9.99653 5.25261 10.7226C5.97852 11.4486 6.96275 11.8571 7.98944 11.8585C9.01625 11.8573 10.0007 11.4489 10.7267 10.7228C11.4528 9.99677 11.8612 9.01235 11.8624 7.98553C11.8608 6.95884 11.4521 5.97469 10.726 5.24893C9.99976 4.52316 9.01538 4.11502 7.98869 4.11403V4.11328ZM7.98869 10.3525C7.36112 10.3525 6.75925 10.1032 6.3155 9.65947C5.87174 9.21571 5.62244 8.61385 5.62244 7.98628C5.62244 7.35871 5.87174 6.75685 6.3155 6.31309C6.75925 5.86933 7.36112 5.62003 7.98869 5.62003C8.61626 5.62003 9.21812 5.86933 9.66188 6.31309C10.1056 6.75685 10.3549 7.35871 10.3549 7.98628C10.3549 8.61385 10.1056 9.21571 9.66188 9.65947C9.21812 10.1032 8.61626 10.3525 7.98869 10.3525Z" fill="#828282"/>
<path d="M11.8692 5.07034C12.3815 5.07034 12.7969 4.65498 12.7969 4.14259C12.7969 3.63021 12.3815 3.21484 11.8692 3.21484C11.3568 3.21484 10.9414 3.63021 10.9414 4.14259C10.9414 4.65498 11.3568 5.07034 11.8692 5.07034Z" fill="#828282"/>
</svg>
