<svg width="12" height="13" viewBox="0 0 12 13" fill="none" xmlns="http://www.w3.org/2000/svg">
<path d="M1.90524 3.49867C2.61014 3.49867 3.18157 2.88642 3.18157 2.13117C3.18157 1.37592 2.61014 0.763672 1.90524 0.763672C1.20034 0.763672 0.628906 1.37592 0.628906 2.13117C0.628906 2.88642 1.20034 3.49867 1.90524 3.49867Z" fill="#828282"/>
<path d="M4.38801 4.53516V12.122H6.58659V8.37016C6.58659 7.38016 6.76042 6.42141 7.90609 6.42141C9.03601 6.42141 9.05001 7.55328 9.05001 8.43265V12.1227H11.2498V7.96203C11.2498 5.91828 10.8391 4.34766 8.60959 4.34766C7.53918 4.34766 6.82167 4.97703 6.52826 5.57266H6.49851V4.53516H4.38801ZM0.805176 4.53516H3.00726V12.122H0.805176V4.53516Z" fill="#828282"/>
</svg>
