<svg width="15" height="15" viewBox="0 0 15 15" fill="none" xmlns="http://www.w3.org/2000/svg">
<path d="M7.49833 0.357422C3.55333 0.357422 0.355469 3.55528 0.355469 7.50028C0.355469 11.4453 3.55333 14.6431 7.49833 14.6431C11.4433 14.6431 14.6412 11.4453 14.6412 7.50028C14.6412 3.55528 11.4433 0.357422 7.49833 0.357422ZM7.49833 1.39242C9.0544 1.39242 10.4748 1.97456 11.5533 2.93242C10.7608 3.97778 9.5569 4.67385 8.35047 5.14492C7.66752 3.90112 6.90212 2.7044 6.0594 1.56278C6.53072 1.44917 7.01387 1.39198 7.49868 1.39242H7.49833ZM4.89976 1.97099C5.69618 3.16242 6.46761 4.26706 7.17226 5.51742C5.39011 5.97921 3.37618 6.25635 1.51583 6.26099C1.90797 4.35814 3.18618 2.77814 4.89976 1.97135V1.97099ZM12.2308 3.63885C13.1134 4.71741 13.5989 6.06629 13.6062 7.45992C12.1933 7.18135 10.7883 7.10849 9.35761 7.25278C9.1969 6.85171 9.0019 6.47064 8.81511 6.05992C10.0483 5.56242 11.3669 4.71099 12.2308 3.63849V3.63885ZM7.66833 6.46242C7.82118 6.78742 7.99833 7.13242 8.16475 7.48492C6.17547 8.36207 4.0594 9.53421 2.96118 11.5892C1.9069 10.4225 1.34504 8.89308 1.39333 7.32135C3.52368 7.31135 5.61476 7.04492 7.66833 6.46242ZM10.8962 8.12778C11.785 8.12797 12.6702 8.24199 13.5301 8.46706C13.3975 9.29429 13.0962 10.0854 12.6448 10.7912C12.1933 11.4969 11.6016 12.1023 10.9062 12.5696C10.5783 11.0785 10.2658 9.65171 9.71333 8.21314C10.1049 8.15608 10.5001 8.12743 10.8958 8.12742L10.8962 8.12778ZM13.5619 8.23849C13.5576 8.27349 13.5537 8.30778 13.5487 8.34206C13.5537 8.30742 13.558 8.27314 13.5619 8.23849ZM8.58333 8.49207C9.14618 9.94671 9.58797 11.5574 9.8844 13.1249C9.12983 13.4451 8.31837 13.6096 7.49868 13.6085C6.14077 13.6104 4.82128 13.1578 3.75047 12.3228C4.85654 10.5285 6.56976 9.17064 8.58297 8.49242L8.58333 8.49207Z" fill="#828282" stroke="#828282" stroke-width="0.1"/>
</svg>
