<svg width="20" height="21" viewBox="0 0 20 21" fill="none" xmlns="http://www.w3.org/2000/svg">
<path d="M10.0363 0C10.5418 0.413955 10.9687 0.903473 11.4287 1.35891C12.5087 2.43034 13.5741 3.51739 14.6524 4.58841C14.8807 4.81469 14.9871 5.04918 14.9828 5.36868C14.966 6.52308 14.9802 7.67747 14.9716 8.83145C14.9716 9.00968 15.0351 9.07785 15.2089 9.12385C17.7577 9.81541 19.3547 11.4063 19.8726 13.8827C20.2742 15.8038 19.7216 17.5376 18.3515 19.0062C17.2578 20.1803 15.8727 20.86 14.246 20.9774C11.7934 21.1544 9.84021 20.2423 8.42595 18.3081C8.31096 18.1504 8.19897 18.083 7.99687 18.0838C6.17712 18.0916 4.35738 18.0892 2.53764 18.0879C1.24481 18.0871 0.265641 17.3175 0.025354 16.1089C0.00371964 15.974 -0.00461266 15.8375 0.000467168 15.7011C0.000467168 11.2615 0.000467168 6.82177 0.000467168 2.38188C0.000467168 1.24885 0.725618 0.342909 1.86526 0.047227C1.91976 0.0332642 1.97425 0.0160161 2.02832 0H10.0363ZM8.60402 11.364H8.31868C6.84864 11.364 5.3786 11.364 3.90856 11.364C3.7874 11.3704 3.66603 11.3558 3.55028 11.3209C3.46364 11.2922 3.38761 11.24 3.33146 11.1707C3.27532 11.1013 3.2415 11.0178 3.23413 10.9303C3.22675 10.8429 3.24615 10.7553 3.28995 10.6782C3.33375 10.6011 3.40005 10.5379 3.48076 10.4963C3.59919 10.431 3.72706 10.4372 3.85535 10.4372C5.6535 10.4372 7.45179 10.4381 9.25022 10.44C9.40629 10.4454 9.55899 10.3957 9.67931 10.3004C10.8726 9.37682 12.2427 8.92878 13.7732 8.92755C13.9448 8.92755 14.013 8.88648 14.0122 8.71112C14.0053 7.74112 14.0053 6.77126 14.0122 5.80153C14.0122 5.62823 13.9483 5.58018 13.7753 5.58182C13.0116 5.58839 12.2482 5.59045 11.4845 5.58182C10.7735 5.57484 10.1813 5.32351 9.74796 4.76582C9.43988 4.36911 9.3502 3.91122 9.34677 3.4332C9.34119 2.66812 9.34033 1.90304 9.34677 1.13838C9.34677 0.957681 9.28498 0.904294 9.09961 0.904705C6.90185 0.909633 4.70365 0.917847 2.50589 0.904705C1.60867 0.898956 0.958182 1.61804 0.961185 2.38065C0.970625 6.81999 0.970625 11.2593 0.961185 15.6987C0.961185 16.4206 1.54431 17.1594 2.49859 17.1607C4.18961 17.1607 5.88106 17.1607 7.57208 17.1639C7.73813 17.1639 7.78662 17.1364 7.7244 16.9693C7.3365 15.9432 7.25551 14.8338 7.49055 13.7661C7.52144 13.624 7.48411 13.5759 7.32449 13.5771C6.46633 13.5837 5.61202 13.5804 4.75557 13.58C4.40587 13.58 4.05617 13.5845 3.70646 13.5776C3.44343 13.5722 3.26236 13.4067 3.2319 13.1628C3.20486 12.9505 3.3662 12.7488 3.6082 12.6819C3.71229 12.6584 3.81936 12.6492 3.92615 12.6548C5.1539 12.6548 6.38137 12.6548 7.60855 12.6548C7.70337 12.6548 7.82309 12.6893 7.87501 12.5755C8.06381 12.1607 8.32469 11.7862 8.60402 11.364ZM13.6779 20.0768C16.5605 20.1039 19.0187 17.8395 19.0119 14.9726C19.005 12.1295 16.642 9.86469 13.6724 9.86798C10.6465 9.87168 8.34099 12.1965 8.33713 14.9779C8.33327 17.8255 10.7949 20.1109 13.6779 20.0768ZM13.3535 4.65248L10.3929 1.67184L10.3388 1.7051C10.3388 2.34451 10.3281 2.98434 10.3418 3.62375C10.3543 4.1954 10.728 4.60936 11.3231 4.64344C11.9796 4.68163 12.6421 4.65248 13.3535 4.65248Z" fill="#1BB1A1"/>
<path d="M6.00719 9.15393C5.24386 9.15393 4.48009 9.15681 3.71675 9.15393C3.44171 9.15393 3.25377 8.97898 3.23103 8.72847C3.21172 8.51451 3.37649 8.3178 3.62321 8.26236C3.68501 8.24639 3.74848 8.23703 3.81243 8.23443C5.28977 8.23443 6.76667 8.22991 8.24401 8.23443C8.57912 8.23443 8.78551 8.40404 8.80696 8.6566C8.83142 8.94408 8.63533 9.15147 8.31952 9.15352C7.54803 9.15722 6.77697 9.15393 6.00719 9.15393Z" fill="#1BB1A1"/>
<path d="M14.1597 13.2229V17.6043C14.1597 17.707 14.1632 17.8096 14.1597 17.9115C14.1456 18.1813 13.9722 18.3632 13.7195 18.3809C13.4487 18.3985 13.2501 18.2421 13.2046 17.9661C13.1944 17.8844 13.191 17.802 13.1943 17.7197C13.1943 16.3193 13.1943 14.9189 13.1943 13.5186C13.1943 13.4459 13.2136 13.3699 13.1741 13.2968C13.0883 13.3005 13.057 13.3703 13.0115 13.4163C12.4777 13.9578 11.9452 14.5006 11.414 15.0446C11.2703 15.1912 11.1025 15.291 10.8833 15.2368C10.7916 15.2179 10.708 15.1727 10.6438 15.1073C10.5796 15.0418 10.5377 14.9592 10.5237 14.8705C10.4885 14.7 10.5597 14.56 10.6747 14.4421C11.5446 13.5463 12.4171 12.6529 13.2921 11.7617C13.541 11.5091 13.8216 11.5243 14.0911 11.7978C14.7858 12.5038 15.4745 13.2155 16.1657 13.9247C16.3373 14.0996 16.5124 14.2688 16.6759 14.4495C16.8552 14.6471 16.8724 14.8697 16.739 15.0512C16.5489 15.3107 16.2322 15.3267 15.9666 15.0725C15.7242 14.8413 15.4993 14.5937 15.2659 14.3534L14.1597 13.2229Z" fill="#1BB1A1"/>
</svg>
