<svg width="19" height="15" viewBox="0 0 19 15" fill="none" xmlns="http://www.w3.org/2000/svg">
<path d="M18.6875 7.44346C18.6875 7.39834 18.6875 7.34707 18.6854 7.2876C18.6834 7.12149 18.6793 6.93487 18.6752 6.73594C18.6588 6.16377 18.6301 5.59365 18.585 5.05635C18.5234 4.31602 18.4332 3.69873 18.3102 3.23525C18.1803 2.75158 17.9258 2.31045 17.572 1.95597C17.2183 1.60149 16.7777 1.34607 16.2942 1.21523C15.7139 1.05937 14.5777 0.962988 12.9781 0.903516C12.2173 0.874805 11.4031 0.856348 10.589 0.846094C10.3039 0.841992 10.0394 0.839941 9.80147 0.837891H9.19853C8.96064 0.839941 8.69609 0.841992 8.41103 0.846094C7.59687 0.856348 6.78271 0.874805 6.02187 0.903516C4.42227 0.965039 3.28408 1.06143 2.70576 1.21523C2.22219 1.34575 1.78141 1.60106 1.4276 1.95559C1.07379 2.31012 0.819371 2.75142 0.689844 3.23525C0.564746 3.69873 0.476562 4.31602 0.415039 5.05635C0.369922 5.59365 0.341211 6.16377 0.324805 6.73594C0.318652 6.93487 0.316602 7.12149 0.314551 7.2876C0.314551 7.34707 0.3125 7.39834 0.3125 7.44346V7.5583C0.3125 7.60342 0.3125 7.65469 0.314551 7.71416C0.316602 7.88028 0.320703 8.0669 0.324805 8.26582C0.341211 8.83799 0.369922 9.40811 0.415039 9.94541C0.476562 10.6857 0.566797 11.303 0.689844 11.7665C0.952344 12.7488 1.72344 13.524 2.70576 13.7865C3.28408 13.9424 4.42227 14.0388 6.02187 14.0982C6.78271 14.127 7.59687 14.1454 8.41103 14.1557C8.69609 14.1598 8.96064 14.1618 9.19853 14.1639H9.80147C10.0394 14.1618 10.3039 14.1598 10.589 14.1557C11.4031 14.1454 12.2173 14.127 12.9781 14.0982C14.5777 14.0367 15.7159 13.9403 16.2942 13.7865C17.2766 13.524 18.0477 12.7509 18.3102 11.7665C18.4353 11.303 18.5234 10.6857 18.585 9.94541C18.6301 9.40811 18.6588 8.83799 18.6752 8.26582C18.6813 8.0669 18.6834 7.88028 18.6854 7.71416C18.6854 7.65469 18.6875 7.60342 18.6875 7.5583V7.44346ZM17.2109 7.5501C17.2109 7.59317 17.2109 7.64034 17.2089 7.69571C17.2068 7.85567 17.2027 8.03203 17.1986 8.22276C17.1843 8.76827 17.1556 9.31377 17.1125 9.82032C17.0571 10.4807 16.9792 11.0221 16.8828 11.3851C16.7557 11.8588 16.3824 12.2341 15.9107 12.3592C15.4801 12.474 14.3952 12.5663 12.9207 12.6217C12.1742 12.6504 11.3703 12.6689 10.5685 12.6791C10.2875 12.6832 10.0271 12.6853 9.79326 12.6853H9.20674L8.43154 12.6791C7.62969 12.6689 6.82783 12.6504 6.0793 12.6217C4.60479 12.5643 3.51787 12.474 3.08926 12.3592C2.61758 12.232 2.24434 11.8588 2.11719 11.3851C2.0208 11.0221 1.94287 10.4807 1.8875 9.82032C1.84443 9.31377 1.81777 8.76827 1.80137 8.22276C1.79522 8.03203 1.79316 7.85362 1.79111 7.69571C1.79111 7.64034 1.78906 7.59112 1.78906 7.5501V7.45166C1.78906 7.4086 1.78906 7.36143 1.79111 7.30606C1.79316 7.1461 1.79727 6.96973 1.80137 6.77901C1.81572 6.2335 1.84443 5.68799 1.8875 5.18145C1.94287 4.5211 2.0208 3.97969 2.11719 3.6167C2.24434 3.14297 2.61758 2.76768 3.08926 2.64258C3.51992 2.52774 4.60479 2.43545 6.0793 2.38008C6.82578 2.35137 7.62969 2.33291 8.43154 2.32266C8.7125 2.31856 8.97295 2.3165 9.20674 2.3165H9.79326L10.5685 2.32266C11.3703 2.33291 12.1722 2.35137 12.9207 2.38008C14.3952 2.4375 15.4821 2.52774 15.9107 2.64258C16.3824 2.76973 16.7557 3.14297 16.8828 3.6167C16.9792 3.97969 17.0571 4.5211 17.1125 5.18145C17.1556 5.68799 17.1822 6.2335 17.1986 6.77901C17.2048 6.96973 17.2068 7.14815 17.2089 7.30606C17.2089 7.36143 17.2109 7.41065 17.2109 7.45166V7.5501ZM7.6748 10.2489L12.4326 7.48037L7.6748 4.75283V10.2489Z" fill="#828282"/>
</svg>
